 http://img52.imageshack.us/img52/6756/2nzn.jpg

Country.......: USA
Genre.........: Action
Date release..: 26.07.2011 [World]
Director......: James Fargo
Writers.......: Robert Vozza, Mike Anthony Jones
Duration......: 90 min.
More..........: http://www.imdb.com/title/tt1721491
Trailer.......:

Pilot :
Mike and Alex are the lovers of old motorcycles, who were embroiled in a dark business. Now they must flee from people who are determined to their death.

Cats :
Casper Van Dien   	 ...  	Mike Callahan
Patrick Muldoon 	... 	Alex
William Forsythe 	... 	Jack Steele
Theresa Russell 	... 	Frances Callahan
Jack Maxwell 	... 	Vic
Branscombe Richmond 	... 	Dean
Jamison Jones 	... 	Gary
Kurt Andon 	... 	Senator Clayton
Dave Goryl 	... 	David
Keith Ball 	... 	Interviewer
Cledia Barsottelli 	... 	Blonde PA
Alaina Beaulyle 	... 	Lady Cop
Michelle Bengston 	... 	Tammy
Jim Bentley 	... 	Vet
Andre Caceres 	... 	Biker | Bike Fabricator 

Data Technical :
!!! SAMPLE !!!
Audio.....: English
Subtitles.: None
Format                           : AVI
Format/Info                      : Audio Video Interleave
File size                        : 1.27 GiB
Duration                         : 1h 30mn
Overall bit rate                 : 2 024 Kbps
Writing library                  : VirtualDub build 32839/release
Video
ID                               : 0
Format                           : MPEG-4 Visual
Format profile                   : Advanced Simple@L5
Format settings, BVOP            : Yes
Format settings, QPel            : No
Format settings, GMC             : No warppoints
Format settings, Matrix          : Default (H.263)
Codec ID                         : XVID
Codec ID/Hint                    : XviD
Duration                         : 1h 30mn
Bit rate                         : 1 700 Kbps
Width                            : 720 pixels
Height                           : 384 pixels
Display aspect ratio             : 1.875
Frame rate                       : 23.976 fps
Color space                      : YUV
Chroma subsampling               : 4:2:0
Bit depth                        : 8 bits
Scan type                        : Progressive
Bits/(Pixel*Frame)               : 0.256
Stream size                      : 1.07 GiB (84%)
Writing library                  : XviD 1.2.1 (UTC 2008-12-04)
Audio
ID                               : 1
Format                           : AC-3
Format/Info                      : Audio Coding 3
Mode extension                   : CM (complete main)
Codec ID                         : 2000
Duration                         : 1h 30mn
Bit rate mode                    : Constant
Bit rate                         : 320 Kbps
Channel(s)                       : 6 channels
Channel positions                : Front: L C R, Side: L R, LFE
Sampling rate                    : 48.0 KHz
Bit depth                        : 16 bits
Video delay                      : 500ms
Stream size                      : 206 MiB (16%)
Alignment                        : Split accross interleaves
Interleave, duration             : 6554 ms (157.14 video frames)

Screen : 
http://img219.imageshack.us/img219/3159/borntoride2011s1.jpg 
http://img818.imageshack.us/img818/8092/borntoride2011s2.jpg 
http://img14.imageshack.us/img14/4995/borntoride2011s3.jpg 
http://img684.imageshack.us/img684/8026/borntoride2011s4.jpg 
http://img3.imageshack.us/img3/4470/borntoride2011s5.jpg